HIERARCHY
ROOT root
{
  OFFSET 0 93.2929 0
  CHANNELS 6 Xposition Yposition Zposition Zrotation Xrotation Yrotation
  JOINT torso_1
  {
    OFFSET 0 5.07867 -1.15138
    CHANNELS 6 Xposition Yposition Zposition Zrotation Xrotation Yrotation
    JOINT torso_2
    {
      OFFSET 0 5.61661 1.07143
      CHANNELS 6 Xposition Yposition Zposition Zrotation Xrotation Yrotation
      JOINT torso_3
      {
        OFFSET -1.02604e-17 5.98978 0.11501
        CHANNELS 6 Xposition Yposition Zposition Zrotation Xrotation Yrotation
        JOINT torso_4
        {
          OFFSET -1.10457e-17 6.50583 -0.443523
          CHANNELS 6 Xposition Yposition Zposition Zrotation Xrotation Yrotation
          JOINT torso_5
          {
            OFFSET -1.97295e-17 7.60548 -1.50593
            CHANNELS 6 Xposition Yposition Zposition Zrotation Xrotation Yrotation
            JOINT torso_6
            {
              OFFSET -2.53307e-17 9.49737 -0.914492
              CHANNELS 6 Xposition Yposition Zposition Zrotation Xrotation Yrotation
              JOINT torso_7
              {
                OFFSET -2.90401e-17 10.5513 1.57691
                CHANNELS 6 Xposition Yposition Zposition Zrotation Xrotation Yrotation
                JOINT neck_1
                {
                  OFFSET -1.29193e-17 4.78644 0.715339
                  CHANNELS 6 Xposition Yposition Zposition Zrotation Xrotation Yrotation
                  JOINT neck_2
                  {
                    OFFSET -1.8116e-17 4.82109 0.421791
                    CHANNELS 6 Xposition Yposition Zposition Zrotation Xrotation Yrotation
                    JOINT head
                    {
                      OFFSET -2.00958e-17 4.83041 0.765062
                      CHANNELS 6 Xposition Yposition Zposition Zrotation Xrotation Yrotation
                      End Site
                      {
                        OFFSET 0 0.1 0
                      }
                    }
                  }
                }
                JOINT l_shoulder
                {
                  OFFSET 1.23299 -7.60731 7.53374
                  CHANNELS 6 Xposition Yposition Zposition Zrotation Xrotation Yrotation
                  JOINT l_up_arm
                  {
                    OFFSET 12.9547 3.2495 -3.26872
                    CHANNELS 6 Xposition Yposition Zposition Zrotation Xrotation Yrotation
                    JOINT l_low_arm
                    {
                      OFFSET 29.2081 0.0598081 0.137039
                      CHANNELS 6 Xposition Yposition Zposition Zrotation Xrotation Yrotation
                      JOINT l_hand
                      {
                        OFFSET 24.234 0.0496219 0.113701
                        CHANNELS 6 Xposition Yposition Zposition Zrotation Xrotation Yrotation
                        End Site
                        {
                          OFFSET 0.1 0 0
                        }
                      }
                    }
                  }
                }
                JOINT r_shoulder
                {
                  OFFSET -1.23299 -7.60729 7.53365
                  CHANNELS 6 Xposition Yposition Zposition Zrotation Xrotation Yrotation
                  JOINT r_up_arm
                  {
                    OFFSET -12.9547 3.2495 -3.26872
                    CHANNELS 6 Xposition Yposition Zposition Zrotation Xrotation Yrotation
                    JOINT r_low_arm
                    {
                      OFFSET -29.2081 0.0598081 0.137039
                      CHANNELS 6 Xposition Yposition Zposition Zrotation Xrotation Yrotation
                      JOINT r_hand
                      {
                        OFFSET -24.234 0.0496218 0.113702
                        CHANNELS 6 Xposition Yposition Zposition Zrotation Xrotation Yrotation
                        End Site
                        {
                          OFFSET -0.1 0 0
                        }
                      }
                    }
                  }
                }
              }
            }
          }
        }
      }
    }
  }
  JOINT l_up_leg
  {
    OFFSET 9.23673 -4.20556 2.0327
    CHANNELS 6 Xposition Yposition Zposition Zrotation Xrotation Yrotation
    JOINT l_low_leg
    {
      OFFSET -0.852353 -38.7721 -0.655187
      CHANNELS 6 Xposition Yposition Zposition Zrotation Xrotation Yrotation
      JOINT l_foot
      {
        OFFSET -2.32622 -40.4017 -6.04875
        CHANNELS 6 Xposition Yposition Zposition Zrotation Xrotation Yrotation
        JOINT l_toes
        {
          OFFSET 0.779096 -9.8844 12.4959
          CHANNELS 6 Xposition Yposition Zposition Zrotation Xrotation Yrotation
          End Site
          {
            OFFSET 0 0 0.1
          }
        }
      }
    }
  }
  JOINT r_up_leg
  {
    OFFSET -9.23673 -4.20556 2.0327
    CHANNELS 6 Xposition Yposition Zposition Zrotation Xrotation Yrotation
    JOINT r_low_leg
    {
      OFFSET 0.852353 -38.7721 -0.655187
      CHANNELS 6 Xposition Yposition Zposition Zrotation Xrotation Yrotation
      JOINT r_foot
      {
        OFFSET 2.32622 -40.4017 -6.04875
        CHANNELS 6 Xposition Yposition Zposition Zrotation Xrotation Yrotation
        JOINT r_toes
        {
          OFFSET -0.779096 -9.8844 12.4959
          CHANNELS 6 Xposition Yposition Zposition Zrotation Xrotation Yrotation
          End Site
          {
            OFFSET 0 0 0.1
          }
        }
      }
    }
  }
}
MOTION
Frames: 6
Frame Time: 0.016667
-25.531 91.9401 82.7208 3.15583 -2.54357 3.44785 0 5.07867 -1.15138 -0.687011 2.767 -0.333372 0 5.61661 1.07143 -0.307457 2.71313 -0.438397 -1.02604e-17 5.98978 0.11501 -0.0686985 3.08442 -0.328881 -1.10457e-17 6.50583 -0.443523 0.152606 3.4026 -0.276006 -1.97295e-17 7.60548 -1.50593 0.361205 2.98589 -0.351923 -2.53307e-17 9.49737 -0.914492 0.518391 2.92091 -0.69051 -2.90401e-17 10.5513 1.57691 -0.0483301 0.675132 0.120573 -1.29193e-17 4.78644 0.715339 0.0823427 -0.430028 -2.6922 -1.8116e-17 4.82109 0.421791 -0.144702 -9.60492 -1.42077 -2.00958e-17 4.83041 0.765062 -1.81014 -11.3856 2.77027 1.23299 -7.60731 7.53374 1.28494 1.93914 0.0121118 12.9547 3.2495 -3.26872 -80.1669 25.9287 -9.92449 29.2081 0.0598081 0.137039 3.14179 -0.405876 -15.3099 24.234 0.0496219 0.113701 0.880273 -26.5393 -3.24087 -1.23299 -7.60729 7.53365 4.39184 3.67906 2.00546 -12.9547 3.2495 -3.26872 71.7925 11.1707 5.45252 -29.2081 0.0598081 0.137039 -1.7339 -0.117977 8.38339 -24.234 0.0496218 0.113702 0.55451 -12.4815 2.50846 9.23673 -4.20556 2.0327 -0.832451 -3.03109 -13.0219 -0.852353 -38.7721 -0.655187 -2.52015 9.3705 0.0426297 -2.32622 -40.4017 -6.04875 0.665851 -4.51963 15.4536 0.779096 -9.8844 12.4959 3.31729e-16 -7.85549e-16 2.83401e-18 -9.23673 -4.20556 2.0327 -1.25204 1.48198 17.2625 0.852353 -38.7721 -0.655187 1.02366 3.8228 0.0325844 2.32622 -40.4017 -6.04875 -5.40465 -6.97516 -15.1238 -0.779096 -9.8844 12.4959 -5.05666e-16 -5.6475e-16 -1.27499e-14 
-25.624 91.9315 82.6784 3.20465 -2.67376 3.34382 0 5.07867 -1.15138 -0.732176 2.75408 -0.319471 0 5.61661 1.07143 -0.340922 2.6893 -0.435853 -1.02604e-17 5.98978 0.11501 -0.0921705 3.03567 -0.325905 -1.10457e-17 6.50583 -0.443523 0.137713 3.30769 -0.273833 -1.97295e-17 7.60548 -1.50593 0.357005 2.86309 -0.346701 -2.53307e-17 9.49737 -0.914492 0.525866 2.77533 -0.688215 -2.90401e-17 10.5513 1.57691 -0.048631 0.688097 0.120711 -1.29193e-17 4.78644 0.715339 0.0812847 -0.561857 -2.69428 -1.8116e-17 4.82109 0.421791 -0.158469 -9.4522 -1.42183 -2.00958e-17 4.83041 0.765062 -1.79892 -11.1127 2.84816 1.23299 -7.60731 7.53374 1.36667 2.03802 0.0194633 12.9547 3.2495 -3.26872 -80.4431 25.7961 -9.67759 29.2081 0.0598081 0.137039 3.04148 -0.379442 -14.8105 24.234 0.0496219 0.113701 0.884767 -26.3276 -3.30995 -1.23299 -7.60729 7.53365 4.51345 3.80988 2.02284 -12.9547 3.2495 -3.26872 71.8115 10.7499 5.43912 -29.2081 0.0598081 0.137039 -1.64819 -0.106115 7.96643 -24.234 0.0496218 0.113702 0.491763 -12.447 2.66422 9.23673 -4.20556 2.0327 -0.828316 -2.87884 -12.951 -0.852353 -38.7721 -0.655187 -2.52772 9.39829 0.043379 -2.32622 -40.4017 -6.04875 0.638405 -4.50923 15.4548 0.779096 -9.8844 12.4959 2.48481e-17 -7.95139e-16 1.2424e-17 -9.23673 -4.20556 2.0327 -1.24196 1.56138 17.6735 0.852353 -38.7721 -0.655187 1.01649 3.79605 0.0325938 2.32622 -40.4017 -6.04875 -5.58322 -6.91326 -15.1208 -0.779096 -9.8844 12.4959 -2.23212e-16 -5.82403e-16 -1.27587e-14 
-25.7072 91.9468 82.6647 3.29459 -2.76222 3.14329 0 5.07867 -1.15138 -0.789128 2.66881 -0.297121 0 5.61661 1.07143 -0.387227 2.61765 -0.425359 -1.02604e-17 5.98978 0.11501 -0.127835 2.96449 -0.315632 -1.10457e-17 6.50583 -0.443523 0.111151 3.22872 -0.264757 -1.97295e-17 7.60548 -1.50593 0.343366 2.78333 -0.332758 -2.53307e-17 9.49737 -0.914492 0.527706 2.68872 -0.675604 -2.90401e-17 10.5513 1.57691 -0.0494434 0.69402 0.118955 -1.29193e-17 4.78644 0.715339 0.0790411 -0.651146 -2.65199 -1.8116e-17 4.82109 0.421791 -0.194415 -9.2766 -1.40288 -2.00958e-17 4.83041 0.765062 -1.80411 -10.8445 2.93212 1.23299 -7.60731 7.53374 1.4224 2.09837 0.0428753 12.9547 3.2495 -3.26872 -80.7478 25.5018 -9.36251 29.2081 0.0598081 0.137039 2.9583 -0.358231 -14.3973 24.234 0.0496219 0.113701 0.943118 -25.8089 -3.36909 -1.23299 -7.60729 7.53365 4.61798 3.88212 1.98422 -12.9547 3.2495 -3.26872 71.8814 10.4228 5.37989 -29.2081 0.0598081 0.137039 -1.58149 -0.0973226 7.64221 -24.234 0.0496218 0.113702 0.434528 -12.4875 2.79427 9.23673 -4.20556 2.0327 -0.856488 -2.67618 -12.6898 -0.852353 -38.7721 -0.655187 -2.50328 9.30855 0.0409726 -2.32622 -40.4017 -6.04875 0.507203 -4.41575 15.4604 0.779096 -9.8844 12.4959 2.48481e-17 -7.95139e-16 1.2424e-17 -9.23673 -4.20556 2.0327 -1.29142 1.62441 18.1959 0.852353 -38.7721 -0.655187 1.00111 3.73865 0.0326026 2.32622 -40.4017 -6.04875 -5.65821 -6.82344 -15.1191 -0.779096 -9.8844 12.4959 -5.54519e-16 -5.61697e-16 -1.27484e-14 
-25.7724 91.9762 82.6696 3.43718 -2.82919 2.91119 0 5.07867 -1.15138 -0.869332 2.52037 -0.268876 0 5.61661 1.07143 -0.455544 2.5015 -0.41178 -1.02604e-17 5.98978 0.11501 -0.182866 2.86882 -0.303185 -1.10457e-17 6.50583 -0.443523 0.0679947 3.15657 -0.25413 -1.97295e-17 7.60548 -1.50593 0.315845 2.73353 -0.31474 -2.53307e-17 9.49737 -0.914492 0.520319 2.64472 -0.656168 -2.90401e-17 10.5513 1.57691 -0.0506704 0.696361 0.115641 -1.29193e-17 4.78644 0.715339 0.072977 -0.748288 -2.54913 -1.8116e-17 4.82109 0.421791 -0.257535 -9.0741 -1.35694 -2.00958e-17 4.83041 0.765062 -1.79349 -10.5175 2.97528 1.23299 -7.60731 7.53374 1.42587 2.12991 0.0824387 12.9547 3.2495 -3.26872 -81.0229 25.0849 -8.98137 29.2081 0.0598081 0.137039 2.89459 -0.342415 -14.0812 24.234 0.0496219 0.113701 1.02609 -25.1696 -3.36804 -1.23299 -7.60729 7.53365 4.70543 3.9075 1.9195 -12.9547 3.2495 -3.26872 72.0153 10.1058 5.256 -29.2081 0.0598081 0.137039 -1.53755 -0.0917415 7.42878 -24.234 0.0496218 0.113702 0.383339 -12.2854 2.86656 9.23673 -4.20556 2.0327 -0.949475 -2.39692 -12.4888 -0.852353 -38.7721 -0.655187 -2.43423 9.05488 0.0343841 -2.32622 -40.4017 -6.04875 0.318241 -4.24316 15.4699 0.779096 -9.8844 12.4959 2.48481e-17 -7.95139e-16 1.2424e-17 -9.23673 -4.20556 2.0327 -1.41682 1.70561 18.7103 0.852353 -38.7721 -0.655187 0.973343 3.63502 0.0325794 2.32622 -40.4017 -6.04875 -5.6754 -6.73262 -15.1157 -0.779096 -9.8844 12.4959 -3.06881e-16 -5.77174e-16 -1.27561e-14 
-25.8201 92.0087 82.6667 3.56379 -2.85168 2.69523 0 5.07867 -1.15138 -0.937501 2.33384 -0.241712 0 5.61661 1.07143 -0.514779 2.35963 -0.398043 -1.02604e-17 5.98978 0.11501 -0.231728 2.76056 -0.290797 -1.10457e-17 6.50583 -0.443523 0.0282302 3.09242 -0.243711 -1.97295e-17 7.60548 -1.50593 0.288625 2.70676 -0.297459 -2.53307e-17 9.49737 -0.914492 0.510263 2.63162 -0.636444 -2.90401e-17 10.5513 1.57691 -0.0519044 0.696671 0.111724 -1.29193e-17 4.78644 0.715339 0.0702384 -0.846868 -2.41883 -1.8116e-17 4.82109 0.421791 -0.323859 -8.88542 -1.29835 -2.00958e-17 4.83041 0.765062 -1.82 -10.2042 2.98404 1.23299 -7.60731 7.53374 1.39333 2.13712 0.129332 12.9547 3.2495 -3.26872 -81.278 24.6423 -8.59123 29.2081 0.0598081 0.137039 2.84817 -0.331126 -13.8512 24.234 0.0496219 0.113701 1.09523 -24.585 -3.36303 -1.23299 -7.60729 7.53365 4.76833 3.89695 1.84002 -12.9547 3.2495 -3.26872 72.1469 9.81843 5.10994 -29.2081 0.0598081 0.137039 -1.5122 -0.0885965 7.30566 -24.234 0.0496218 0.113702 0.328409 -11.9092 2.91652 9.23673 -4.20556 2.0327 -1.04662 -2.09159 -12.4373 -0.852353 -38.7721 -0.655187 -2.3277 8.66289 0.0248204 -2.32622 -40.4017 -6.04875 0.150577 -4.06133 15.4777 0.779096 -9.8844 12.4959 2.48481e-17 -7.95139e-16 1.2424e-17 -9.23673 -4.20556 2.0327 -1.54035 1.78547 19.2168 0.852353 -38.7721 -0.655187 0.921955 3.44319 0.0324038 2.32622 -40.4017 -6.04875 -5.67925 -6.61428 -15.1113 -0.779096 -9.8844 12.4959 -4.21996e-16 -5.69979e-16 -1.27525e-14 
-25.8552 92.0396 82.644 3.65343 -2.82898 2.51431 0 5.07867 -1.15138 -0.982447 2.12642 -0.218929 0 5.61661 1.07143 -0.555464 2.20355 -0.385729 -1.02604e-17 5.98978 0.11501 -0.267092 2.64536 -0.279874 -1.10457e-17 6.50583 -0.443523 -0.00279041 3.03361 -0.234782 -1.97295e-17 7.60548 -1.50593 0.264652 2.69406 -0.283062 -2.53307e-17 9.49737 -0.914492 0.497589 2.63621 -0.61834 -2.90401e-17 10.5513 1.57691 -0.0532428 0.695793 0.107197 -1.29193e-17 4.78644 0.715339 0.0690951 -0.937492 -2.28547 -1.8116e-17 4.82109 0.421791 -0.397826 -8.72514 -1.23843 -2.00958e-17 4.83041 0.765062 -1.86703 -9.93209 2.97068 1.23299 -7.60731 7.53374 1.33108 2.12566 0.170631 12.9547 3.2495 -3.26872 -81.5049 24.1987 -8.22411 29.2081 0.0598081 0.137039 2.81245 -0.322572 -13.6743 24.234 0.0496219 0.113701 1.13237 -24.0842 -3.37232 -1.23299 -7.60729 7.53365 4.78463 3.85669 1.75007 -12.9547 3.2495 -3.26872 72.2795 9.6061 4.94797 -29.2081 0.0598081 0.137039 -1.50051 -0.0871661 7.24893 -24.234 0.0496218 0.113702 0.283779 -11.4664 2.98209 9.23673 -4.20556 2.0327 -1.12327 -1.79175 -12.5313 -0.852353 -38.7721 -0.655187 -2.19447 8.17179 0.0138917 -2.32622 -40.4017 -6.04875 0.0300227 -3.89051 15.4815 0.779096 -9.8844 12.4959 1.81798e-16 -7.90234e-16 7.51935e-18 -9.23673 -4.20556 2.0327 -1.63676 1.84924 19.7103 0.852353 -38.7721 -0.655187 0.850626 3.17687 0.0318744 2.32622 -40.4017 -6.04875 -5.68154 -6.46682 -15.1042 -0.779096 -9.8844 12.4959 -5.96354e-16 -5.59082e-16 -1.27471e-14 
